<svg preserveAspectRatio="xMidYMid meet" viewBox="608.2560000000001 169.984 362.496 454.656" xmlns="http://www.w3.org/2000/svg" version="1.0" style="max-height: 500px" width="362.496" height="454.656">

<defs>
  <mask id="logo-mask" maskContentUnits="userSpaceOnUse">
    <!-- bianco = lascia passare il viola; nero = nasconde -->
    <rect x="608" y="169" width="363" height="456" fill="white"/>
    <!-- il compound path in nero toglie lo sfondo, i "fori" (logo) rimangono bianchi -->
    <g stroke="none" fill="black" fill-rule="evenodd" transform="translate(0.000000,1024.000000) scale(0.100000,-0.100000)">
      <path d="M0 5120 l0 -5120 7680 0 7680 0 0 5120 0 5120 -7680 0 -7680 0 0 -5120z m7724 3274 l26 -27 0 -336 c0 -292 -2 -340 -16 -359 -41 -58 -116 -43&#10;-128 25 -3 21 -6 180 -6 353 1 329 1 333 45 358 31 18 50 14 79 -14z m161&#10;-509 c63 -44 122 -131 131 -191 16 -111 -24 -237 -94 -294 -20 -16 -61 -48&#10;-91 -72 -79 -63 -94 -88 -99 -162 l-4 -63 65 -23 c36 -13 103 -49 149 -81 46&#10;-32 106 -72 134 -89 l52 -31 -23 -92 c-13 -51 -32 -132 -43 -182 -81 -350&#10;-123 -529 -126 -532 -2 -2 -28 6 -59 18 -48 18 -56 25 -52 43 2 11 18 77 34&#10;146 17 69 47 197 67 285 20 88 40 176 45 195 5 19 9 40 9 47 0 6 -53 42 -117&#10;80 -113 65 -121 68 -183 68 -106 0 -214 -67 -287 -177 l-25 -38 72 -311 c39&#10;-171 70 -313 67 -315 -3 -3 -28 -14 -56 -24 l-50 -20 -10 38 c-21 78 -71 294&#10;-106 452 -19 91 -42 193 -50 227 -20 82 -21 78 23 104 20 12 71 50 112 82 73&#10;59 179 117 211 117 14 0 17 15 21 93 3 78 8 100 30 138 29 49 98 116 171 166&#10;95 65 112 168 42 251 -33 38 -35 45 -35 111 0 84 5 86 75 36z m-345 -51 c0&#10;-71 -2 -79 -32 -116 -26 -33 -33 -52 -36 -99 -6 -83 20 -121 126 -185 2 -1&#10;-12 -32 -30 -69 l-34 -66 -54 40 c-107 81 -150 163 -150 289 0 71 29 142 78&#10;196 27 29 109 86 124 86 4 0 8 -34 8 -76z m1883 -594 l198 -196 -3 -490 -3&#10;-491 -29 -37 c-44 -58 -74 -66 -244 -66 l-149 0 -6 51 c-4 29 -4 56 -1 60 3 5&#10;66 9 141 9 113 0 140 3 155 17 17 15 18 42 18 435 l0 418 -142 0 c-126 0 -147&#10;3 -176 20 -51 31 -62 71 -62 215 l0 125 -274 0 c-273 0 -275 0 -290 -22 -14&#10;-20 -16 -81 -16 -466 l0 -444 -59 53 -60 54 0 408 c-1 439 0 448 52 495 53 50&#10;78 52 427 50 l325 -3 198 -195z m-1712 -386 c34 -17 58 -64 51 -100 -2 -13&#10;-16 -35 -29 -49 -68 -67 -183 9 -153 100 12 35 49 64 83 65 10 0 32 -7 48 -16z&#10;m-581 -8 c0 -8 21 -113 26 -128 4 -14 -14 -27 -83 -61 -169 -85 -287 -177&#10;-399 -310 -120 -142 -208 -312 -254 -488 -27 -106 -38 -335 -21 -462 31 -234&#10;140 -469 303 -655 205 -232 482 -383 790 -428 269 -39 595 26 827 165 310 187&#10;542 509 606 843 20 106 29 311 18 410 -5 42 -6 242 -2 445 4 202 4 371 0 375&#10;-3 4 -36 -26 -71 -67 l-65 -75 -42 42 c-23 23 -39 46 -36 52 17 29 287 346&#10;294 346 7 0 94 -105 276 -330 l22 -27 -43 -42 -43 -42 -73 83 -73 82 6 -573&#10;c6 -633 4 -665 -54 -849 -35 -109 -115 -268 -192 -381 -81 -118 -273 -307&#10;-394 -385 -376 -246 -829 -301 -1256 -155 -417 143 -774 512 -901 930 -48 159&#10;-58 225 -60 404 -1 189 16 294 76 464 118 336 369 612 701 771 96 47 117 55&#10;117 46z m1163 -364 c338 -226 542 -647 499 -1031 -29 -260 -132 -478 -311&#10;-660 -168 -172 -403 -293 -641 -331 -95 -15 -274 -12 -375 5 -374 66 -727 356&#10;-859 707 -96 259 -95 555 5 802 64 157 206 341 350 452 83 64 228 140 234 122&#10;10 -30 45 -177 45 -191 0 -8 -24 -28 -52 -45 -195 -110 -356 -330 -409 -559&#10;-12 -52 -20 -96 -17 -98 2 -3 75 -8 161 -11 l157 -7 0 -84 0 -83 -159 0 -159&#10;0 5 -42 c9 -74 61 -220 103 -293 149 -254 377 -412 663 -460 l37 -6 0 153 0&#10;153 99 0 99 0 -5 -153 -6 -153 44 7 c306 44 581 256 697 537 27 64 62 201 62&#10;241 0 13 -25 16 -157 18 l-158 3 -3 83 -3 82 138 0 c76 0 148 3 161 6 28 8 28&#10;27 2 130 -53 209 -196 407 -381 529 -29 19 -57 36 -62 38 -4 1 4 53 18 114&#10;l27 113 41 -21 c23 -12 73 -42 110 -67z m565 -464 c3 -58 3 -58 -25 -58 -25 0&#10;-31 6 -48 53 -11 28 -21 56 -23 60 -2 5 18 7 44 5 l49 -3 3 -57z m-1052 6 c57&#10;-16 154 -71 197 -112 31 -29 107 -138 107 -153 0 -5 -44 -9 -97 -9 -94 0 -98&#10;1 -128 29 -16 16 -55 42 -85 58 -48 24 -66 27 -140 27 -64 0 -96 -6 -130 -21&#10;-69 -32 -125 -87 -159 -155 -62 -123 -32 -284 69 -371 66 -56 123 -79 210 -82&#10;93 -4 158 18 224 77 43 37 107 137 89 138 -5 1 -74 1 -155 0 l-148 -1 0 86 0&#10;85 245 0 245 0 0 -68 c0 -244 -174 -445 -418 -482 -245 -38 -488 131 -547 381&#10;-19 80 -19 149 0 218 73 275 347 432 621 355z m-2429 -2489 c51 -15 114 -52&#10;119 -70 2 -5 -9 -25 -24 -42 l-27 -33 -64 32 c-52 27 -75 32 -130 32 -130 -1&#10;-215 -78 -228 -209 -19 -185 159 -304 346 -229 l41 16 0 69 0 69 -80 0 -80 0&#10;0 45 0 45 135 0 135 0 0 -48 c0 -27 -3 -91 -7 -142 l-6 -92 -45 -29 c-25 -15&#10;-79 -36 -120 -45 -234 -52 -432 89 -435 309 -1 92 22 162 74 221 73 82 147&#10;114 270 115 41 1 98 -6 126 -14z m821 -18 c67 -35 128 -96 155 -156 17 -36 22&#10;-65 22 -136 0 -78 -4 -97 -28 -147 -58 -117 -168 -181 -317 -181 -103 -1 -176&#10;24 -243 84 -151 132 -137 395 26 508 72 49 121 62 232 58 86 -3 108 -7 153&#10;-30z m770 4 c68 -30 107 -76 121 -140 23 -106 -24 -202 -119 -245 -35 -15 -73&#10;-21 -172 -24 l-128 -4 0 -104 0 -104 -55 0 -55 0 0 326 0 326 178 -4 c158 -4&#10;183 -7 230 -27z m412 -196 c4 -187 8 -225 23 -253 58 -106 248 -105 310 3 8&#10;13 14 102 17 245 l5 225 53 3 52 3 0 -224 c0 -254 -8 -294 -68 -354 -55 -55&#10;-113 -77 -207 -77 -116 0 -160 16 -221 78 -69 70 -74 97 -74 361 l0 216 53 -3&#10;52 -3 5 -220z m790 -50 l0 -275 173 -2 172 -3 0 -45 0 -45 -227 -3 -228 -2 0&#10;318 c0 175 3 322 7 325 3 4 28 7 55 7 l48 0 0 -275z m618 -2 l2 -273 170 0&#10;c93 0 171 -4 174 -8 2 -4 2 -27 -1 -50 l-6 -42 -223 0 -224 0 0 319 0 320 23&#10;4 c12 3 36 4 52 3 l30 -1 3 -272z m993 273 c2 -3 3 -25 1 -50 l-4 -46 -184 0&#10;-184 0 0 -85 0 -85 168 -2 167 -3 3 -47 3 -48 -170 0 -171 0 0 -90 0 -90 193&#10;-2 192 -3 0 -45 0 -45 -247 -3 -248 -2 0 325 0 325 238 0 c131 0 241 -2 243&#10;-4z m335 -146 c54 -82 103 -150 107 -150 8 0 187 268 187 281 0 14 34 20 77&#10;13 30 -4 43 -11 39 -19 -2 -7 -58 -93 -123 -191 l-118 -179 -5 -125 -5 -125&#10;-52 -3 -53 -3 0 116 0 116 -78 117 c-107 159 -182 280 -182 292 0 5 24 10 54&#10;10 l53 0 99 -150z"/>
<path d="M9242 7156 l3 -91 88 -3 c48 -1 87 -1 87 1 0 2 -41 44 -90 94 l-91&#10;90 3 -91z"/>
<path d="M5966 3449 c-40 -10 -96 -46 -128 -84 -29 -32 -51 -122 -44 -173 30&#10;-223 351 -276 444 -74 56 122 18 250 -89 305 -62 31 -126 40 -183 26z"/>
<path d="M6672 3328 l3 -123 80 -2 c91 -1 173 18 199 46 30 33 39 85 22 126&#10;-23 55 -76 75 -204 75 l-103 0 3 -122z"/>
    </g>
  </mask>
</defs>

<!-- rettangolo viola visibile solo dove i "fori" del logo lasciano passare la maschera -->
<rect x="608" y="169" width="363" height="456" fill="#6366f1" mask="url(#logo-mask)"/>

</svg>